{"title":"Springfloden S02 E03 - 720p x265 HEVC - SWE (ENG SUBS) [BRSHNKV]","magnet":"magnet:?xt=urn:btih:1abeb01725f66ebc443255527112240b0dafe14e&dn=Springfloden+S02+E03+-+720p+x265+HEVC+-+SWE+%28ENG+SUBS%29+%5BBRSHNKV%5D&tr=udp%3A%2F%2Ftracker.leechers-paradise.org%3A6969&tr=udp%3A%2F%2Fzer0day.ch%3A1337&tr=udp%3A%2F%2Fopen.demonii.com%3A1337&tr=udp%3A%2F%2Ftracker.coppersurfer.tk%3A6969&tr=udp%3A%2F%2Fexodus.desync.com%3A6969","uploader":"BRSHNKV","categoryP":"video","categoryS":"hd___tv_shows","size":"451096748","seeders":"17","leechers":"4","description":"Video\r\nID                                       : 1\r\nFormat                                   : HEVC\r\nFormat/Info                              : High Efficiency Video Coding\r\nFormat profile                           : Main 10@L3.1@Main\r\nCodec ID                                 : hvc1\r\nCodec ID/Info                            : High Efficiency Video Coding\r\nDuration                                 : 43mn 49s\r\nBit rate                                 : 1 201 Kbps\r\nWidth                                    : 1 280 pixels\r\nHeight                                   : 720 pixels\r\nDisplay aspect ratio                     : 16:9\r\nFrame rate mode                          : Constant\r\nFrame rate                               : 25.000 fps\r\nColor space                              : YUV\r\nChroma subsampling                       : 4:2:0\r\nBit depth                                : 10 bits\r\nBits/(Pixel*Frame)                       : 0.052\r\nStream size                              : 376 MiB (88%)\r\nWriting library                          : x265 2.6:[Mac OS X][clang 9.1.0][64 bit] 10bit\r\nEncoded date                             : UTC 2018-10-02 22:09:50\r\nTagged date                              : UTC 2018-10-02 22:09:50\r\nColor range                              : Limited\r\nColor primaries                          : BT.709\r\nTransfer characteristics                 : BT.709\r\nMatrix coefficients                      : BT.709\r\n\r\nAudio\r\nID                                       : 2\r\nFormat                                   : AAC\r\nFormat/Info                              : Advanced Audio Codec\r\nFormat profile                           : LC\r\nCodec ID                                 : 40\r\nDuration                                 : 43mn 49s\r\nBit rate mode                            : Variable\r\nBit rate                                 : 165 Kbps\r\nChannel(s)                               : 2 channels\r\nChannel positions                        : Front: L R\r\nSampling rate                            : 48.0 KHz\r\nCompression mode                         : Lossy\r\nStream size                              : 51.7 MiB (12%)\r\nTitle                                    : Stereo / Stereo\r\nLanguage                                 : Swedish\r\nEncoded date                             : UTC 2018-10-02 22:09:50\r\nTagged date                              : UTC 2018-10-02 22:09:50","last_updated":"2018-10-04T12:12:17.486Z","parsed":{"xt":"urn:btih:1abeb01725f66ebc443255527112240b0dafe14e","dn":"Springfloden S02 E03 - 720p x265 HEVC - SWE (ENG SUBS) [BRSHNKV]","tr":["udp://exodus.desync.com:6969","udp://open.demonii.com:1337","udp://tracker.coppersurfer.tk:6969","udp://tracker.leechers-paradise.org:6969","udp://zer0day.ch:1337"],"infoHash":"1abeb01725f66ebc443255527112240b0dafe14e","infoHashBuffer":{"type":"Buffer","data":[26,190,176,23,37,246,110,188,68,50,85,82,113,18,36,11,13,175,225,78]},"name":"Springfloden S02 E03 - 720p x265 HEVC - SWE (ENG SUBS) [BRSHNKV]","announce":["udp://exodus.desync.com:6969","udp://open.demonii.com:1337","udp://tracker.coppersurfer.tk:6969","udp://tracker.leechers-paradise.org:6969","udp://zer0day.ch:1337"],"urlList":[]}}